<svg xmlns="http://www.w3.org/2000/svg" viewBox="0 0 256.574 68.983">
  <defs>
    <style>
      .cls-1 {
        fill: #ee305b;
      }
    </style>
  </defs>
  <g id="Group_3" data-name="Group 3" transform="translate(0.182 0.362)">
    <g id="Group_1" data-name="Group 1" transform="translate(-0.182 -0.362)">
      <circle id="Ellipse_1" data-name="Ellipse 1" class="cls-1" cx="2.559" cy="2.559" r="2.559" transform="translate(9.136 37.423)"/>
      <circle id="Ellipse_2" data-name="Ellipse 2" class="cls-1" cx="1.396" cy="1.396" r="1.396" transform="translate(7.585 46.961)"/>
      <circle id="Ellipse_3" data-name="Ellipse 3" class="cls-1" cx="1.396" cy="1.396" r="1.396" transform="translate(12.548 54.018)"/>
      <circle id="Ellipse_4" data-name="Ellipse 4" class="cls-1" cx="1.396" cy="1.396" r="1.396" transform="translate(2.235 32.848)"/>
      <circle id="Ellipse_5" data-name="Ellipse 5" class="cls-1" cx="1.396" cy="1.396" r="1.396" transform="translate(14.409 9.431)"/>
      <circle id="Ellipse_6" data-name="Ellipse 6" class="cls-1" cx="0.698" cy="0.698" r="0.698" transform="translate(19.76 2.607)"/>
      <circle id="Ellipse_7" data-name="Ellipse 7" class="cls-1" cx="0.698" cy="0.698" r="0.698" transform="matrix(0.57, -0.822, 0.822, 0.57, 30.471, 1.936)"/>
      <circle id="Ellipse_8" data-name="Ellipse 8" class="cls-1" cx="0.698" cy="0.698" r="0.698" transform="matrix(0.57, -0.822, 0.822, 0.57, 38.957, 1.147)"/>
      <circle id="Ellipse_9" data-name="Ellipse 9" class="cls-1" cx="3.489" cy="3.489" r="3.489" transform="translate(21.543 11.369)"/>
      <circle id="Ellipse_10" data-name="Ellipse 10" class="cls-1" cx="3.722" cy="3.722" r="3.722" transform="translate(32.166 4.468)"/>
      <circle id="Ellipse_11" data-name="Ellipse 11" class="cls-1" cx="2.249" cy="2.249" r="2.249" transform="translate(24.722 3.925)"/>
      <circle id="Ellipse_12" data-name="Ellipse 12" class="cls-1" cx="2.249" cy="2.249" r="2.249" transform="translate(56.67 10.594)"/>
      <path id="Path_1" data-name="Path 1" class="cls-1" d="M67.809,58.126a26.229,26.229,0,0,1-44.975-4.342,1.237,1.237,0,0,0-.7-.543,7.759,7.759,0,0,1-6.514-7.677,7.626,7.626,0,0,1,2.636-5.816.846.846,0,0,0-.233-1.4,9.744,9.744,0,0,1-5.661-9.615,7.64,7.64,0,0,1,.155-1.318,1.1,1.1,0,0,0-.543-1.163l-.233-.078a1.215,1.215,0,0,0-1.241.233,6.266,6.266,0,0,1-7.056,1.4A6.166,6.166,0,0,1,8.334,16.486a6.226,6.226,0,0,1,3.8,6.281.951.951,0,0,0,.62,1.086l.31.155A.972.972,0,0,0,14.3,23.7a9.644,9.644,0,0,1,13.26-1.939h0a.513.513,0,0,0,.465.078.426.426,0,0,0,.233-.388,7.881,7.881,0,0,1,6.591-7.6,7.674,7.674,0,0,1,7.289,2.869.756.756,0,0,0,.7.31,17.642,17.642,0,0,1,2.016-.155,1.077,1.077,0,0,0,1.008-.931l.078-.388a1.618,1.618,0,0,0-.931-1.628,5.966,5.966,0,0,1-2.171-1.783,6.291,6.291,0,1,1,8.84,1.008,7.111,7.111,0,0,1-2.559,1.241,1.565,1.565,0,0,0-1.241,1.4v.155a1.092,1.092,0,0,0,1.008,1.086,26.136,26.136,0,0,1,18.843,10.7,1.9,1.9,0,0,1-.543,2.714l-6.9,3.955-.233.155a7.95,7.95,0,0,1-7.677.155,8.7,8.7,0,0,0-4.5-.931,9.386,9.386,0,0,0,.388,18.765,9.525,9.525,0,0,0,4.187-1.008,8.161,8.161,0,0,1,7.677.155l.233.155,6.9,3.955C68.119,55.955,68.429,57.273,67.809,58.126Z" transform="translate(0.182 -0.154)"/>
    </g>
    <g id="Group_2" data-name="Group 2" transform="translate(74.477 18.762)">
      <path id="Path_2" data-name="Path 2" class="cls-1" d="M96.643,72.764a1.7,1.7,0,0,1-.543-1.318V26.161A1.853,1.853,0,0,1,97.961,24.3H110.29a1.853,1.853,0,0,1,1.861,1.861V71.368a1.853,1.853,0,0,1-1.861,1.861H97.961A1.639,1.639,0,0,1,96.643,72.764Z" transform="translate(-96.1 -24.3)"/>
      <path id="Path_3" data-name="Path 3" class="cls-1" d="M163.645,58.988c0,.775-.078,1.861-.155,3.257Q162.443,77.6,143.484,77.6T123.478,62.245c-.078-.7-.078-1.783-.078-3.257s0-2.559.078-3.257c.31-5.04,2.249-8.84,5.738-11.476s8.22-3.955,14.268-3.955,10.778,1.318,14.268,3.955,5.428,6.436,5.738,11.476A27.033,27.033,0,0,1,163.645,58.988ZM141.157,52.4a10.293,10.293,0,0,0-.775,3.644L140.3,58.91l.078,2.869a9.191,9.191,0,0,0,.7,3.722c.388.7,1.163,1.008,2.4,1.008s2.016-.31,2.4-1.008a8.887,8.887,0,0,0,.7-3.722,24.425,24.425,0,0,0,.078-2.869,24.425,24.425,0,0,0-.078-2.869,9.874,9.874,0,0,0-.775-3.644,3.188,3.188,0,0,0-4.653,0Z" transform="translate(-102.231 -27.893)"/>
      <path id="Path_4" data-name="Path 4" class="cls-1" d="M184.087,59.963a9.1,9.1,0,0,1-3.567-7.754,9.577,9.577,0,0,1,2.016-5.738,13.755,13.755,0,0,1,5.971-4.342A24.752,24.752,0,0,1,197.89,40.5a26.165,26.165,0,0,1,9.538,1.628,17.2,17.2,0,0,1,6.358,3.955,6.6,6.6,0,0,1,2.171,4.42,1.9,1.9,0,0,1-.465,1.241,1.637,1.637,0,0,1-1.008.543H202.93a2.455,2.455,0,0,1-1.241-.31c-.465-.233-.853-.465-1.241-.7a4.319,4.319,0,0,0-2.559-1.008,1.236,1.236,0,0,0-.931.31.859.859,0,0,0-.388.775,1.578,1.578,0,0,0,.465,1.163,5.323,5.323,0,0,0,2.094.931,40.35,40.35,0,0,0,5.04.931c4.575.7,7.987,2.094,10.158,4.342a10.042,10.042,0,0,1,3.257,7.289,9.686,9.686,0,0,1-5.04,8.685c-3.334,2.094-8.142,3.1-14.268,3.1a28.2,28.2,0,0,1-10.313-1.628,14.967,14.967,0,0,1-6.126-3.955,6.927,6.927,0,0,1-1.939-4.42,1.9,1.9,0,0,1,.465-1.241,1.649,1.649,0,0,1,1.163-.543h12.019a4.5,4.5,0,0,1,2.4.931,10.106,10.106,0,0,0,1.473.853,3.7,3.7,0,0,0,1.4.31,1.78,1.78,0,0,0,1.086-.31.853.853,0,0,0,.465-.775,1.9,1.9,0,0,0-.388-1.163,4.92,4.92,0,0,0-1.939-.931,43.506,43.506,0,0,0-4.808-1.086A24.169,24.169,0,0,1,184.087,59.963Z" transform="translate(-114.919 -27.938)"/>
      <path id="Path_5" data-name="Path 5" class="cls-1" d="M249.7,63.33a6.766,6.766,0,0,0,.62,3.179,2.161,2.161,0,0,0,2.094,1.008,1.654,1.654,0,0,0,.931-.233,5.559,5.559,0,0,0,1.086-1.008,3.474,3.474,0,0,1,1.008-.775,4.86,4.86,0,0,1,1.241-.155H269.71a1.853,1.853,0,0,1,1.086.388,1.25,1.25,0,0,1,.465,1.008c0,1.318-.7,2.792-2.171,4.5a17.059,17.059,0,0,1-6.358,4.42,25.02,25.02,0,0,1-10.158,1.861c-6.281,0-11.089-1.551-14.578-4.575-3.412-3.024-5.2-7.677-5.2-13.958,0-5.971,1.783-10.546,5.273-13.8s8.3-4.885,14.345-4.885a22.348,22.348,0,0,1,10.934,2.481,16.215,16.215,0,0,1,6.591,6.746,20.976,20.976,0,0,1,2.171,9.46v2.094a1.853,1.853,0,0,1-1.861,1.861H249.7v.388Zm5.583-8.917q0-4.42-2.792-4.42t-2.792,4.42Z" transform="translate(-126.799 -27.893)"/>
      <path id="Path_6" data-name="Path 6" class="cls-1" d="M310.581,42.363A14.6,14.6,0,0,1,316.32,41.2h3.334a1.853,1.853,0,0,1,1.861,1.861V53.839a1.853,1.853,0,0,1-1.861,1.861h-8.917c-2.792,0-4.11,1.4-4.11,4.11V75.164a1.853,1.853,0,0,1-1.861,1.861h-13.1a1.853,1.853,0,0,1-1.861-1.861v-32.1a1.853,1.853,0,0,1,1.861-1.861h12.1a1.853,1.853,0,0,1,1.861,1.861v2.4A17.272,17.272,0,0,1,310.581,42.363Z" transform="translate(-139.6 -28.095)"/>
    </g>
  </g>
</svg>
